<svg width="1088" height="712" viewBox="0 0 1088 712" fill="none" xmlns="http://www.w3.org/2000/svg"><path d="M117.8 132.4c-2 2.9-3.1 6.3-3 9.8 0 4.5 1.6 9.5 5.5 11.5 3 1.5 6.6.8 9.8-.3 3.8-1.2 7.8-3 10.1-6.6 3.6-5.3 2-13.5-2.9-17.4a13.8 13.8 0 0 0-17 .5c-2 1.7-3.7 4.1-3.7 6.9M283.8 670.4a58.8 58.8 0 0 1 25.3-28.5 44.5 44.5 0 0 1 25-7.3c8.7.5 16.5 7.4 20.9 15.9a38.4 38.4 0 0 1 13.7-18.6c10.3-6.5 22.3-12.1 33.7-8.6a32 32 0 0 1 18.8 18.4A59.6 59.6 0 0 1 425 670" fill="#F4B99F"/><path d="M975.5 135.3c-3.7-9.4-10.4-10.7-16-11.3a16.8 16.8 0 0 0-15 5.8c-2.1 2.8-3.3 6.2-3.5 9.8-.5 6 1.4 12 5.1 16.7 1.3 1.6 3 3 5 3.8 2.4.9 5 1 7.5.4 5.8-1 11-4.3 14.4-9a18 18 0 0 0 2.4-16.5" fill="#F3B93F"/><path d="M597.6 299.1c-.4 8.7 3.9 15.4 9.9 19.7a15.8 15.8 0 0 0 19.5-.8 27 27 0 0 0 6.3-29.8c-2-3-4.8-5.4-8.2-6.6a19.4 19.4 0 0 0-14.3-.7c-4.6 1.8-12.2 6.3-13.3 15.6" fill="#F7DBCE"/><path d="M269 285c4.4-.5 11 5.5 15 7.7 9.3 5.2 18.8 10.4 28.3 15.4 12 6.4 27.5 12.6 36.6 22.8-4.4.4-8.5 10.8-10.5 14.2L318.9 379a307 307 0 0 1-26.4 36.8c-6.5 8.1-11.6 17-18.4 25-6.7 7.9-12 16-18.3 24.1-2 2.5-5.7 9.8-8.8 10.7-3.3 1-11.3-3.6-14.7-4.6-17.3-5.4-35.5-7-53-11.4-3.9-1-9.5-1.4-12.2-4.8-3.8-4.9 0-14 1.1-19.5 3.4-15.2 8.5-30.1 13.9-44.7 5.7-15.4 11-31 21-44.2 11-14.4 23.3-27.9 34.9-41.6 3.1-3.8 6.3-9.4 10.5-12.1 3.6-2.4 8-1.5 11.7-3.5" fill="#F0F1F9"/><path d="m24.2 192.7 59.1 38.5a446.6 446.6 0 0 1 27.2-33 166 166 0 0 0-54.3-44 232.3 232.3 0 0 0-34.4 37.3" fill="#C0DCEE"/><path d="M871.1 354c10.4-24.2 23.6-47 39.3-68.1 36.7 21.3 73.7 42 111.1 61.8a2035.5 2035.5 0 0 1-47.7 84.4l-81-40.7c-10.6-5.3-22-11.3-27.5-21.8M570.5 66.9l-.1 72.5c0 1 0 2 .5 2.8 1 1.7 3.2 1.5 5 1.3 15.2-2.2 52.6-2.1 52.6-4.3l.1-43c0-11.3.1-22.8-2.2-33.8-.1-.9-.5-1.7-1-2.4a3.7 3.7 0 0 0-2.9-.5L572.2 63" fill="#F0F1F9"/><path d="M387.6 400c.8 6 1.2 12.1 1.2 18.3 0 7.7 12 7.7 12 0 0-6.2-.4-12.2-1.2-18.3-.4-3.2-2.4-6-6-6-2.9 0-6.4 2.8-6 6ZM389 456.9c.6 7 .5 14-.3 20.9-.3 3.2 3 6 6 6 3.6 0 5.7-2.8 6-6 .8-7 .9-14 .4-21-.6-7.6-12.6-7.6-12 0ZM388 514.9l-.4 20.3c-.1 7.8 11.9 7.8 12 0l.4-20.3c.1-7.8-11.9-7.8-12 0Z" fill="#F7DBCE"/><path d="M928.7 251.2c3.8-4.6 9-7.9 14.7-9.4 7.4-2.1 4.3-13.7-3.2-11.6a40.5 40.5 0 0 0-20 12.5c-5 5.8 3.4 14.4 8.5 8.5ZM981 239.2a28 28 0 0 1 18 8.6c5.4 5.6 13.9-3 8.5-8.5a40.8 40.8 0 0 0-26.5-12.1c-7.7-.6-7.7 11.4 0 12ZM1026 281.3c3.8 8.4 5.1 17.7 3.8 26.8-.4 3.2.8 6.4 4.2 7.4 2.8.8 7-1 7.4-4.2 1.9-12.3.1-24.8-5-36-3.2-7-13.5-1-10.4 6ZM387.9 167.5c2.8-2 7-2.3 9.4.5a6.8 6.8 0 0 1-.7 9.2c-2.6 2-7 1.4-9-1.1-2.5-3-1.2-7.2 1.5-9.5 5.8-5-2.7-13.5-8.5-8.5a18.9 18.9 0 0 0-2 25.9 19 19 0 0 0 25.3 2.7c7.5-5.9 9-17.5 3.5-25.2a19 19 0 0 0-25.6-4.3c-6.3 4.4-.3 14.8 6 10.3Z" fill="#C0DCEE"/><path d="m896.3 120.5 13.6 5.8c3 1.2 6.6-1.4 7.4-4.2 1-3.5-1.2-6.1-4.2-7.4l-13.6-5.7c-3-1.3-6.6 1.3-7.4 4.2-1 3.5 1.2 6.1 4.2 7.4ZM973.1 94.5l1.7-10.5c.6-3.2-.8-6.5-4.2-7.4-2.8-.8-6.8 1-7.4 4.2l-1.7 10.4c-.5 3.2.9 6.5 4.2 7.4 2.9.8 6.9-1 7.4-4.2ZM1003.9 138.6l12-.8a6.1 6.1 0 0 0 6-6c0-3-2.8-6.2-6-6l-12 .8a6.1 6.1 0 0 0-6 6c0 3.1 2.7 6.2 6 6Z" fill="#F7D16E"/><path d="M117.8 303.3c-2.4-1.6-6-2-8.7-2.8a1.5 1.5 0 0 0-1.5.4c-7 8.2-25.3 5.7-22.3-7.5.6-3 2.2-5.8 4.4-8 1.2-1.2 2.9-1.9 4-3.2 2-2.4 3.2-8 4-11 3.8-12.8-1-23.3-8-34l-.1-.1a1.3 1.3 0 0 0-1.7-.6c-12.6 4.6-23 14-28.9 26-7 14.2-5 29.3-3.7 44.5.8 8.6 1.3 17.5-1 26-2.4 9-7.3 17.5-11.8 25.6-4.1 7.5-7.9 15-11.8 22.6-3.3 6.4-6 12.6-6.5 20-1 16.3 14.3 22.7 28.3 20.4 1.1 8.7 6.8 19.1 17 16.6 5.3-1.3 7.7-5.4 8.5-10.5 1.5-8.9 2-17.9 3.4-26.7 5.1-34 14.6-68.2 36.8-95.2a1.6 1.6 0 0 0 .1-2c0-.2-.3-.4-.5-.5Z" fill="#E78B63"/><path d="M319.6 127c0-.8-.7-1.7-1.5-1.6-9 1-32.9 7.7-32.9 7.7s-4 6.5-9.2 14.2c14.4-4 29-9.2 43.7-12.1v-8.3Z" fill="#F1A339"/><path d="M319.7 135.2c-14.8 2.9-29.3 8.1-43.7 12.2l-9.5 14c17.2-2.5 34.4-6.6 51.5-10.4 1-5.2 1.5-10.5 1.7-15.8Z" fill="#8EA6A8"/><path d="m266.5 161.4-5.3 7.2c-15 19.2-34 37.1-42 60.7a1.3 1.3 0 0 0 .3 1.4L201 245.6a1.6 1.6 0 0 0-2.7.6 1185.8 1185.8 0 0 0-15.3 63.2c-1 5.3-3.3 11.7-2.3 17.3 1 5 5 8.1 8.6 11.3 5.5 4.8 10.9 9.9 16.6 14.4 3.1 2.5 0 5 4 4.3 5-.8 15.4-6.7 18.3-10.2 17.3-20.1 23.1-24.6 37.2-47.2a351.3 351.3 0 0 0 25-53.3c4.7-12.7 6.3-22.8 10.1-35.8 5.7-19.7 13.9-39 17.5-59-17.2 3.8-34.3 7.9-51.5 10.3Z" fill="#F1A339"/><path d="M221 228.6a1.5 1.5 0 1 0 0-3 1.5 1.5 0 0 0 0 3Z" fill="#F3B93F"/><path d="M353.8 415.6a42.9 42.9 0 0 0-19-23.4 79.3 79.3 0 0 0-32.2-13.2c-26.9-3.7-48.8 16.1-67.6 32.5-10.4 9.2-20 19.2-29 29.9a135 135 0 0 1-30.7 28.8l-30 55c-2.7 4.9 1 10.5 3 15.3 3.9 9.8 9.5 19.2 18.3 25.3 9.7 6.8 20.9 6.6 32.2 4.7 11.3-2 22.4-5 33.2-9a159.3 159.3 0 0 0 55-34.4c8.1-8 14.8-17 21.2-26.4a207.6 207.6 0 0 1 24.3-29c14.6-15.2 27.8-33.9 21.3-56Z" fill="#F4C25F"/><path d="M163 57.9c23.2 27 46.7 61.5 66.8 90.8 30.4-9 66-17.1 97.2-23-1.3-4.1-13-25-16.4-28.5-18-18.5-57.2-59.7-57.2-59.7l-5.6.8a562.3 562.3 0 0 0-80.7 17.8l-4.1 1.8Z" fill="#F0F1F9"/><path d="M348.4 504.4c-7-9.3-17-15.9-28.2-18.8-14.7-3.8-30-.6-44.3 4-30.4 9.5-60.4 20.7-90.5 31.3 11.2-17 15.3-40.3.1-56.2a1.6 1.6 0 0 0-1.3-.5 1.6 1.6 0 0 0-1.1.8c-5.6 10.6-21.2 14.6-32.1 16a239.7 239.7 0 0 1-46 .6 173 173 0 0 1-41.3-6.9h-1a1.2 1.2 0 0 0-1 1.1c-3.9 23.7-15 44.5-23.2 66.8-7.6 21-10.2 43.9-1.8 65.1 7.8 19.8 26.2 35 45.5 43 22.5 9.3 47.9 7.9 71.1 2.5 13-3 25.2-8 38-11.3 12.4-3.2 25-5.5 37.6-8.3 12.7-2.7 25.2-6.4 37.3-11.2a293.2 293.2 0 0 0 33.6-17c9.3-5.2 20-10 27.9-17.2a104 104 0 0 0 18.5-24.5 67.6 67.6 0 0 0 11-27.8c1-11.2-2-22.5-8.8-31.5Z" fill="#F7D16E"/><path d="M147.3 251.1c-.3-2.9-7.3-6.3-10.2-10.2.4-6.9.4-13.8 0-20.6a1.6 1.6 0 0 0-3-.4c-.5 1.5-2.7 3-3.8 4l-6 6c-1.8 1.7-3.6 3.5-5.5 5-1.8 1.5-1.7 1.4-4.2 1-8.6-.7-25.7.6-25.7.6s3.4 7.2 4.1 11.5a107 107 0 0 1 1 22c-.1 2-.7 8-1.4 10-.6 1.6-1.8 1.6-3 3.1-3 3.5-4 3.5-5 8.8-1.7 8.2 1.9 13.6 9.4 14.6 8.3 1 9.4-1 14.6-5.2 6 2.7 15 4.8 19.5-.2 6.7-7.3 11-18 14-27.3 2.6-8 6.4-14.3 5.3-22.7ZM203.3 153.4c-8.3-10.2-15-21.8-19.5-34.2-1.4-3.8-2.6-8-1.8-12 .7-3.3 2.8-6.2 5-8.9A40.8 40.8 0 0 1 203.7 84a7.7 7.7 0 0 1 7.3 1c2.7-2.7 5.2-4.2 8.3-4.2 4.2 0 6.3 1 7.3 3.5 1.4-1.9 4.6-1.9 6.3-.2a6.5 6.5 0 0 1 1.4 6.6c-.9 2.2-2.3 4.2-4.1 5.7 2.2.2 3.5 2.8 3.3 5-.2 2.1-1.6 4-3 5.8l-13.3 17.7c6 2.2 9.2 9 9 15.4A38.1 38.1 0 0 1 220 158c-.3.7-.8 1.3-1.4 1.7a4 4 0 0 1-3-.3l-13.4-4.8M318.7 110.1c1.1-6.8 1.6-13.7 1.5-20.7.2-2.7-.2-5.5-1-8-1.1-2.6-3.4-4.8-6-5.1 1-2.8 1.6-6 .6-8.9-1-2.8-4.3-5-7.2-4-.2-4.8-5.8-8.6-10.4-7.2.6-3.2-2.3-6.1-5.4-7-3.1-1-6.5-.4-9.7-.4-4.2 0-8.5 1.2-12.6 1.8-4 .5-6.2 1-6.2 5.2 0 3.1 3.3 5.1 5.8 5.4a5.3 5.3 0 0 0-.9 9.8c1.3.7 2.7.8 4 .4-3 1-3.3 5.6-1.1 7.9 2.2 2.3 5.8 2.6 9 2-2 2-1 5.5 1.3 7.2 2.3 1.6 5.2 1.8 8 2l11 .5c.9 0 1.8.2 2.7.5a8 8 0 0 1 2.5 1.9c5.3 5 10 10.7 14 16.7" fill="#F7DBCE"/><path d="M228.7 164.3c.3-4.5-2.8-6.4-6.7-8.7a52 52 0 0 0-20.1-6.3c-2.5-.3-6.4-1.4-8.4.3-1.1 1-2 3-2.8 4.2l-5.3 8c14.6 1.3 29.5 4.5 42.5 12.2l.8-9.7Z" fill="#F3B93F"/><path d="M228 174c-13-7.8-28-10.9-42.6-12.2l-.8 1.2c-2.4 3.6-4.8 7.3-7 11 16.7 2.7 33.9 4.5 49.5 10.7l.8-10.7Z" fill="#8EA6A8"/><path d="M220.7 262.7c2.3-18.4 2.2-37 4.3-55.4.8-7.5 1.5-15 2-22.5-15.6-6.3-32.7-8-49.5-10.8-7.9 12.6-15 25.7-21 39.3-8.6 19.7-10.5 41.2-17.9 61.3a77.1 77.1 0 0 1-19.6 29.6c-7.4 7.2-14.7 14-20 22.8-13 21.6-15.5 47.2-18.5 71.7a329.8 329.8 0 0 1-17.7 76c-.4 1-1 4.8 0 5.2 24 9.4 55.8 8.1 87.7 9.4 4.6.1 24.4-8.6 24.6-9.1v-.1c0-.1 33.3-43.8 43.2-73.4 4.4-13 4-36.7 1-50.3a92.4 92.4 0 0 0-17.5-36c4.4-8.8 9-17.5 12.2-26.9 3.3-10 5.5-20.3 6.7-30.8Z" fill="#F3B93F"/><path d="M202.5 324.5c17.2 19.2 20.2 50.7 15.2 75a112.3 112.3 0 0 1-15.7 35.8c-7.8 12.5-19.1 22.4-26.5 35.3-1.6 2.8 2.8 5.4 4.4 2.6 8.2-14.3 21-25.2 29-39.6 6.7-12 12.3-23.8 14.6-37.4 4.1-25 0-55.9-17.4-75.4-2.2-2.4-5.8 1.2-3.6 3.6Z" fill="#232983"/><path d="M220.5 228.7a294 294 0 0 1-12 71.3c-7.2 22.3-19 42.8-25.3 65.3-.9 3.2 4 4.6 5 1.4 6.5-23.1 18.6-44.2 25.7-67.1a304 304 0 0 0 11.7-71c.3-3.2-4.9-3.2-5 0Z" fill="#20267F"/><path d="M112 256.8c-2-3-4.2-11.1.6-12.6 3.2-1 1.8-6-1.3-5-8.4 2.7-7.7 14.2-3.6 20.2 1.8 2.7 6.2.1 4.3-2.6Z" fill="#232983"/><path d="M112 241.3a10.7 10.7 0 0 1 6.5 2.8 6.8 6.8 0 0 1 2 4.4c0 .3 0 .6-.2 1a1.2 1.2 0 0 1-.8.5c-1.5.3-3-.7-4.3-1.8a31 31 0 0 1-2.8-2.7c-.6-1-1-2.1-1.2-3.3l.8-.9Z" fill="#232983"/><path d="M112 242.8c1.8.1 3.6.8 5 2 .5.4 2.8 3 2 3.7-.8.7-4-2.6-4.5-3.2-1-1-1.6-2.2-1.7-3.5l-.4 1.5.7-1c1.2-1.4-1-3.6-2.1-2-.6.7-1.2 1.3-1.1 2.3.1 1.3.6 2.5 1.3 3.6 1.7 2.4 5.3 6 8.6 5.2 3.4-.7 2.3-4.9.9-7a11.2 11.2 0 0 0-8.7-4.6 1.5 1.5 0 1 0 0 3ZM104 240.7a6.4 6.4 0 0 1 2.8-5.5 2.6 2.6 0 0 0 0-3.6 2.6 2.6 0 0 0-3.6 0 11.2 11.2 0 0 0-4.4 9c0 3.3 5.1 3.3 5.1 0ZM120.4 238a327 327 0 0 1 17.7-16.3c2.5-2-1.1-5.7-3.6-3.6a327 327 0 0 0-17.7 16.3c-2.4 2.3 1.2 6 3.6 3.6Z" fill="#232983"/><path d="m134 220.6 1.2 21.6c0 3.3 5.2 3.3 5 0a547 547 0 0 0-1.1-21.6c-.2-3.3-5.3-3.3-5.1 0Z" fill="#232983"/><path d="M136.7 245.6c2 1.3 3.7 2.9 5.2 4.7a2.6 2.6 0 0 0 3.6 0 2.6 2.6 0 0 0 0-3.6c-1.8-2.1-4-4-6.2-5.6a2.6 2.6 0 0 0-3.5 1 2.6 2.6 0 0 0 .9 3.4Z" fill="#232983"/><path d="M140.5 247.5c-2 2-4.4 3-6.5 4.8a15 15 0 0 0-4.3 6c-.7 2 .8 4 2.6 5a7.4 7.4 0 0 0 6.8-.1c3-1.4.4-5.8-2.5-4.4-.8.4-1 0-1.7 0l-.5-.3c-.1 1.4 0 1.7.4 1 1-.7 1.5-2.5 2.5-3.4 2.2-1.8 4.8-2.8 6.8-5 2.2-2.3-1.4-6-3.6-3.6ZM90.2 294.5c1.5-.2 3-.5 4.4-.9 1-.2 3.1-1.1 4-1l-1.8-1.7a105.7 105.7 0 0 1 .5 8.3c.1 3.2 5.2 3.2 5.2 0 0-2-.2-4-.3-5.9-.1-1.6 0-4-1.4-5.1-1.4-1.1-3.3-.5-4.8-.2-2 .4-3.8 1.1-5.8 1.3a2.6 2.6 0 0 0-2.6 2.6 2.6 2.6 0 0 0 2.6 2.5ZM86 238.5c7.4 11 6.3 27.6 4.7 40.3-.4 3.3 4.7 3.2 5.1 0 1.7-13.5 2.6-31-5.5-42.9-1.8-2.7-6.2-.1-4.3 2.6Z" fill="#232983"/><path d="M32 419.4a26 26 0 0 0 21 4l-3.1-1.8c2.6 12 13.3 21 25.8 17.6 3.2-.8 1.8-5.8-1.3-5-10 2.7-17.6-4.8-19.6-14a2.6 2.6 0 0 0-3.2-1.7 21 21 0 0 1-17-3.5c-2.8-1.9-5.3 2.5-2.7 4.4ZM282 443c-11.8 16.2-27.1 31.9-30 52.4-.4 3.2 4.5 4.6 5 1.3 2.8-20 18-35.3 29.4-51 2-2.7-2.4-5.3-4.4-2.6Z" fill="#308DEB"/><path d="M88.8 343.9C77 373 77.9 405 73.1 435.6c-.5 3.2 4.4 4.6 5 1.4 4.8-30.7 3.9-62.6 15.6-91.8 1.3-3-3.7-4.3-4.9-1.3ZM61 479.8c6.7 3.3 14 5.2 21.6 5.4 3.2.1 3.2-5 0-5.1a45 45 0 0 1-19-4.7c-3-1.5-5.6 3-2.6 4.4Z" fill="#232983"/><path d="M87.6 493.4c-.6 3-1 6-1.3 9-.2 2.5-1 5.8 0 8s2.9 2.4 5 2.6c2.1.2 5.1.7 7-.6 1.9-1.3 1.7-4 1.9-6l.9-9.7c.5-6.3-5.3-5.7-10.1-5.3-3.3.2-3.3 5.3 0 5 1.4 0 4.9-.7 6.2.2L96 495c.6 1.7-.3 4.7-.5 6.5-.1 1.9.2 6-1 7.6l1.5-1.2c-1.3.3-4.8.5-6-.3l1.2 1.5c-.8-1.8 0-4.7.1-6.6.3-2.6.6-5.2 1.2-7.7.6-3.2-4.3-4.6-5-1.4h.1Z" fill="#20267F"/><path d="M160.8 60.4C171.6 70 178 83 187.3 94c2.1 2.6 5.7-1 3.6-3.6-9.2-11-15.7-24-26.5-33.7-2.5-2.2-6 1.4-3.6 3.6Z" fill="#308DEB"/><path d="M192.4 497.5c-2.2 7-4 14.1-7.8 20.5-1.8 2.8 2.7 5.4 4.4 2.5 4-6.7 6-14.2 8.3-21.7 1-3.1-4-4.5-4.9-1.3Z" fill="#232983"/><path d="M113.8 549c23.6-6.2 46.7-16 69.4-24.8 13.6-5.2 27.5-9.3 41.1-14.2 13.3-4.8 26.6-9.6 40-14 17.9-6 37.4-11 56.3-8 3.2.6 4.6-4.3 1.3-4.9-31.2-5-63 9.1-91.8 19.4-14.5 5.3-29.4 9.5-43.8 15.1a1936 1936 0 0 1-34.7 13.1c-13 4.8-25.9 10-39.2 13.4-3.2.9-1.8 5.8 1.4 5v-.1ZM28.8 574.2c-.1 17.8 4.1 36.2 14.6 50.9 11.2 15.5 28.2 23.8 45.6 30.4 3 1.2 4.4-3.7 1.4-4.9-16.6-6.3-33.2-14.3-43.5-29.4a81.6 81.6 0 0 1-13-47c0-3.3-5-3.3-5.1 0ZM208.5 119.6a166 166 0 0 1 14-14.1c1.3-1.3 3.7-4.2 5.4-4.8 1.6-1.7 2.4-1 2.4 2-.4 1.3-1 2.6-1.8 3.7l-3 4.2-9.2 12.6a2.6 2.6 0 0 0 .9 3.5 13.3 13.3 0 0 1 6.6 12.4c-.1 3.3 5 3.3 5 0a18.4 18.4 0 0 0-9-16.8l.9 3.5c4.4-6 10-12.2 13.3-19 1.8-3.5 3.2-9.7-1.4-12-4.2-2-8.2 2.2-11 4.7-6 5-11.5 10.6-16.7 16.5-2.1 2.5 1.5 6 3.6 3.6Z" fill="#232983"/><path d="M199 117.6c.5-4.9 4.6-8.4 7.8-11.7 3.2-3.3 6.7-6.6 10.2-9.8 3.3-3 6.7-6.4 10.6-8.5 2.8-1.6 5.6-1.4 3.7 2.5-1.2 2-2.7 3.9-4.4 5.5-2.3 2.4 1.3 6 3.6 3.6 3.4-3.6 8.9-9.6 6.3-15.1-2.6-5.4-9.6-2.5-13.2 0-6.7 4.5-12.7 10.6-18.4 16.3-5 5-10.5 9.8-11.2 17.2-.3 3.3 4.8 3.3 5.1 0Z" fill="#232983"/><path d="M191.5 115.3c-.3-8.7 7.4-14.4 13.1-19.9 2-2 16.7-17.6 19.2-10.2 1 3 6 1.8 4.9-1.4-3.9-11.3-16.8-2.3-22 2.6-8.2 7.8-20.7 16.3-20.3 29 0 3.2 5.2 3.2 5 0v-.1Z" fill="#232983"/><path d="M184 117.5c-.8-4.3-1.3-8.4.8-12.5 1.8-3 3.8-5.8 6.1-8.3 1.4-1.8 13.5-16.6 15.6-12.7 1.6 3 6 .3 4.4-2.5-5.5-10.1-17 3.9-20.6 8-3.8 4.3-7.7 8.7-10.3 13.6-2.5 5-1.9 10.4-.8 15.8.6 3.2 5.5 1.8 4.9-1.4ZM194.5 152.1c11.1-.3 22 3.2 30.7 10 2.6 2 6.2-1.6 3.6-3.6a53 53 0 0 0-34.3-11.5c-3.3 0-3.3 5.2 0 5.1ZM310.8 75.7c-9.3.4-18.7 1-28 2-5 .6-9.6 3.6-8.3 9.5 1.2 5.3 8.1 4.6 12.3 4.9 9 .5 17.7 1 26.6-1.1 3.2-.8 1.8-5.7-1.4-5a62.6 62.6 0 0 1-16.9 1.6l-8.4-.6c-1.7-.1-5.2.4-6.4-.8-2.7-2.5 3.3-3.5 5.4-3.7l8.5-.7c5.5-.5 11-.8 16.6-1 3.3-.2 3.3-5.3 0-5.1Z" fill="#232983"/><path d="M278.4 79c-1.8-.4-8.6-2.2-7.2-5 1.4-2.7 8.4-2 10.9-2.1l23-1.3c3.2-.2 3.2-5.3 0-5.1L284 66.7c-5.2.3-10.8.1-15.4 3-8.8 5.5 2.8 13 8.5 14.3 3.2.7 4.5-4.3 1.3-5Z" fill="#232983"/><path d="M270.8 69.5c-4-1.2-3.8-5.6-.3-7.2 2.7-1.3 6-1 8.9-1 5 .2 9.9.5 14.8-.8 3.2-.8 1.9-5.7-1.3-5-8.5 2.3-21.1-2.6-28 4.4-5.3 5.3-2.1 12.6 4.5 14.5 3.2 1 4.5-4 1.4-4.9Z" fill="#232983"/><path d="M268 58c-1.3-.6-4.1-1.4-2.8-3.4.6-.7 2.8-.9 3.6-1a55 55 0 0 1 9.6-.7c3.3 0 3.3-5.1 0-5-5.2 0-13.2-.5-17.2 3.5-4.3 4.2 0 9 4.1 11 3 1.2 5.6-3.1 2.6-4.5ZM299.6 92.6c9.7 10.1 18.1 21 23.6 34 1.3 3 5.7.4 4.4-2.6a118.2 118.2 0 0 0-24.4-35c-2.2-2.4-5.8 1.2-3.6 3.6Z" fill="#232983"/><path d="M263.4 141.3c21.1-3.4 42-8.5 62.7-13.6 3.2-.8 1.9-5.7-1.3-5a784.7 784.7 0 0 1-62.7 13.7c-3.2.5-1.9 5.4 1.3 4.9Z" fill="#232983"/><path d="M344 211.8c18.5 19.6 26.5 25.8 44.5 55 3.8-1 10-7 9.5-11s-9-15-11.4-18.2c-9.3-13-28.4-37.7-28.4-37.7s-15 1.1-21.8 4.3l7.6 7.6Z" fill="#F0F1F9"/><path d="M366.4 233.9c-9-10-17.8-20-27.5-29.2l-.7 2.5c6-1.3 12-3 18-4.2 1.9-.4 1.1-3.3-.8-2.9-6 1.3-12 3-18 4.2a1.5 1.5 0 0 0-.6 2.5c9.6 9.2 18.5 19.3 27.5 29.2 1.3 1.4 3.4-.7 2-2.1Z" fill="#232983"/><path d="M355.2 203c13.7 11 24 25 34 39.2 1.1 1.6 3.7 0 2.6-1.5a190 190 0 0 0-34.5-39.8c-1.5-1.2-3.6.9-2.1 2.1Z" fill="#232983"/><path d="M356.9 213.2a61 61 0 0 1 7.6-2c1.9-.3 1-3.2-.8-2.9a61 61 0 0 0-7.6 2c-1.9.6-1 3.5.8 3ZM367.4 225.2l6.7-2.5c1.8-.7 1-3.6-.8-3l-6.7 2.6c-1.7.7-1 3.6.8 3ZM378.4 238.8l6.5-3c1.7-.7.2-3.3-1.5-2.5l-6.5 2.9c-1.8.8-.2 3.4 1.5 2.6Z" fill="#232983"/><path d="M410.6 288.1c-.4-1.5-2.8-2.7-3-4.2 0-.6.3-1.2.6-1.7-10.5-1.4-14.8-13.6-18-23.7l-2.2-1.3c1.8 4.1 1.5 9.5-1.1 12.9-1 1-2.1 1.7-3.3 2.2 5 3.5 8.3 8.6 13.2 12.1 3.2 2.4 6.7 4.4 10.4 6 2 .6 4.2.4 3.4-2.3Z" fill="#F4B99F"/><path d="m391.5 260.6-5.5-2.8c-2.4-1.3-3.6-3.5-5.5-5.5a29 29 0 0 1-4-6.4c-.9-1.7-2.4-10.7-8.7-9.6-1.9-2-3.7-4-5.6-4-4.8 0-4 3.3-2.7 6.6 1.4 3.6 2.9 6.8 4.4 10.2 1.5 3.2 2.3 6.7 4 9.8 3.5 6.3 9.2 9.2 15 12.8l.9.6c1.2-.6 2.3-1.3 3.2-2.3 2.6-3.3 6.3-5.2 4.5-9.4Z" fill="#F4B99F"/><path d="M411.7 273.8a1.4 1.4 0 0 0-.7-1.6 12 12 0 0 0-2.5-6.7c-2.6-3.1-6.5-4-8.7-7.8-2.2-4-2.8-15.1-8.7-15.8-7.5-.9-3.3 9.5-.5 16.9-.1-.1 2.7 23.5 17.7 23.4.7-1.3 1.8-2.8 2.1-3.5.6-1.6 1-3.3 1.3-5Z" fill="#F4B99F"/><path d="M454.4 344c.4 6.5 6.5 10 12.3 12.6a93.6 93.6 0 0 0 39 10 44.5 44.5 0 0 0 35.5-16.5c4-5.3 9.4-8.1 11.4-14.4 4.3-12.6 4.6-28.8 7.3-41.8 2.4-11.3 2.7-51.4 0-62.6-2.7-11.3-9.6-.7-20.9-3.2-9-2-18.5 8.5-25.8 14.2-7.4 5.8-12.8 13.5-18.2 21.1-16.6 23.6-25 52-41.6 75.5" fill="#AEB48B"/><path d="m520.1 170.4-.3-.2h-.2a1.2 1.2 0 0 0 .4-1.4 81.4 81.4 0 0 1-8.3-14.2c6.2-4.5 9.5-14.4 4.2-20.8-4.3-5-14-3.3-18.2 1.3-1 .2-1.9.6-2.8 1a21.3 21.3 0 0 1-19.5-5c-1.2-1-1.5-1.5-3-1.7a1.5 1.5 0 0 0-1.4.8c-2 3.2-4 3-7.2 4.5-1.3.7-1.6.8-2 2-1.6 3.8-.6 10.1-.1 14.1.1 1.5 1.4 4 1 5.2-.2 1.2-2.5 2.1-3 3.2-2.1 3.7-5.2 7.8-7.4 11.4-.6 1.1 12 2.1 16.4 2.7 4 11.7 15 15 25.4 8.8l2.1 3.2c6.4 5.5 24-6.7 24.7-13.6a1.5 1.5 0 0 0-.8-1.3Z" fill="#F4B99F"/><path d="M566.2 187.4c-12.5-10.5-19.8-11.5-31.3-9.4-2.1-6.3-2-10-8.4-12.5-6.9-2.8-17.2 10.3-23 13.5-9.4 5.3-11.5 5.3-17.7 9.4-6.3 4.2-2.1 10.5-1 14.7a76 76 0 0 0-28.2 21.9c-4.6 8.1-8.8 15.2-10 24.3-1.2 9.4-2.1 18.8-3 28.3a23 23 0 0 0-12.1-6.6c-5.2-1.3-6.3-9.4-14.7-9.4-6 0-12.1 16-14.6 21.4-1.7 3.9-.7 1.4-1 5.7-.4 5.3 12.1 22.9 14.6 27.2 11.5 19.8 19.8 24 39.7 25 22.3 1.2 34.3-20 40.6-39.5 3.7-11.6 5.1-33 12.6-43 7.6-10 16.4-20.6 28.3-24 7.3-2 20.8-.7 21.9 4.2.6 2.8 0 37.4-1 45-2 13.4-2.4 32.6-5.2 46a37.5 37.5 0 0 1-10.5 18.7l1 41.8s14.2-2.7 18.8-10.4c9.4-15.7 14.3-54.4 15.5-67.3 1.4-15.6 1-29 2.3-44.5 1.2-14.1 5.7-64.4-13.6-80.5Z" fill="#8EA6A8"/><path d="M508.6 128.6c-5-6.6-11.3-15-19.7-17.5-6.5-1.8-11.6-.1-17.6 2-5.4 2-11 3.1-16.6 4.5-3.4 1-8 2-9.8 5.3-2.3 4.3-.2 9.9 2.9 13 3.3 3.5 8.9 4.7 13.6 3.7 4.8-1 7.9-5.1 10.8-8.7 4.2 5.2 11.9 5.8 17.9 8 8.8 3 7.2-10 17.5-8 1 .2 1.5-1.5 1-2.3Z" fill="#F7D16E"/><path d="M543.2 347.7a1.6 1.6 0 0 0-2.3-1.3 103.6 103.6 0 0 1-66.8 11.5c-1.9-.2-2.7 2.3-1.3 3l-1.8 3c-1.2-.6-3 .7-2.1 2.1 5.6 8.6 16.6 12.6 26.1 15.4a183 183 0 0 0 29.6 5.7c3 .3 17.3 6.6 20.8 6 1.5-.2 0-8.9 0-13.5 0-6.4-1.7-24.5-2.2-31.9Z" fill="#E78B63"/><path d="M468.9 154.9c.8 2 2 3.8 3.7 5.3 1.7 1.5 3.7.7 3.6-1.7-.2-2-1-4-2.4-5.7a3 3 0 0 0-2.4-1.3c-1.3.1-1.7.9-2 1.9-.7 1.8 2.2 2.6 2.8.8l.3-.6-1 1c.2-.1 1 1.7 1 1.8.3.4.4.8.6 1.3 0 .3 0 1.3.3.8l1.1-.5c.6 0-.2-.3-.4-.5l-1-1.1c-.5-.7-1-1.5-1.3-2.4-.7-1.7-3.6-1-2.9.8Z" fill="#232983"/><path d="M470.8 154c.6-3.3 7.8-3 9.7-1.6 1.5 1.2 3.6-1 2.1-2.1a10.6 10.6 0 0 0-8.3-1.7c-2.5.4-5.9 1.6-6.4 4.5-.2 2 2.7 2.7 3 .8ZM462.1 148.7a9.2 9.2 0 0 1 5.8-3.2c2-.3 1.1-3.2-.8-2.9-2.8.4-5.3 1.9-7 4-1.3 1.5.8 3.6 2 2.1Z" fill="#232983"/><path d="M459 140.7c-.6 5.5.8 11 1.8 16.3.4 1.9 3.3 1 3-.8-1-5.1-2.4-10.3-1.8-15.5.2-1.9-2.8-1.9-3 0Z" fill="#232983"/><path d="M403.8 278.1c2.8 2 5.5 4.4 8 6.9 1.3 1.4 3.4-.8 2-2.1a69 69 0 0 0-8.5-7.4c-1.6-1.1-3 1.5-1.5 2.6ZM409.6 268.6c3 1.6 5.5 4.1 7.1 7.1 1 1.8 3.5.2 2.6-1.5a20 20 0 0 0-8.1-8.2c-1.7-1-3.2 1.7-1.5 2.6Z" fill="#20267F"/><path d="M461 156.9c-2.9 4.3-6.5 8.2-9.2 12.7a1.5 1.5 0 0 0 2.6 1.5c2.7-4.5 6.3-8.3 9.2-12.7 1-1.6-1.5-3.1-2.6-1.5Z" fill="#232983"/><path d="M452.6 172.2c5 1 10 1.6 15.2 1.8 1.9 0 1.9-3 0-3-4.8-.2-9.6-.8-14.4-1.7-1.8-.4-2.6 2.5-.8 2.9Z" fill="#232983"/><path d="M466.5 173.7c4.4 10.8 14.2 15 25 10.9C503 180.3 507 169 508 157.8c.1-2-2.9-2-3 0-.7 8.8-3.4 18.4-11.7 22.8-9.4 5.1-19.7 2.5-23.8-7.7-.8-1.8-3.6-1-3 .8Z" fill="#232983"/><path d="M508 157.8a1.5 1.5 0 1 0-3 0 1.5 1.5 0 1 0 3 0Z" fill="#232983"/><path d="M507 158.6c1.7-.8 3.3-1.8 4.8-2.9a1.5 1.5 0 0 0 .6-2 1.5 1.5 0 0 0-2-.5c-1.6 1-3.2 2-5 2.8a1.5 1.5 0 0 0-.4 2 1.5 1.5 0 0 0 2 .6ZM505.3 136.7c-.9.7-.8 2.3-1 3.3l-.6 4.4a1.5 1.5 0 0 0 1.4 2c2.5 0 5-.3 7.4-1 1.8-.5 1-3.4-.8-2.9a20 20 0 0 1-6.6.8l1.4 2 .6-3.7.3-1.6.2-1c.1-.7 0-.7-.2-.1 1.5-1.3-.7-3.4-2.1-2.1v-.1ZM479.8 171.5c-1.5 3-2.7 5.6-6 6.6a1.5 1.5 0 0 0 .7 2.9 9.7 9.7 0 0 0 4.7-2.8c1.3-1.6 2.4-3.3 3.2-5.2.8-1.7-1.8-3.2-2.6-1.5Z" fill="#232983"/><path d="M471 129.1c-3.1 4.6-8.2 9.3-14 9.2-6.2 0-12.2-4.6-10.8-11.3.4-1.9-2.5-2.7-2.9-.8-1.5 7.4 3.3 13.2 10.6 14.8 8.3 1.7 15.3-3.8 19.8-10.4 1-1.6-1.6-3-2.6-1.5h-.1Z" fill="#308DEB"/><path d="M471.3 130.6c5.6 7.4 16 12.6 25.2 8.5 1.7-.8.2-3.4-1.5-2.6-7.5 3.4-16.6-1.5-21-7.4-1.3-1.5-3.9 0-2.7 1.5Z" fill="#232983"/><path d="M497 138.5c.9-1.8 2-3.5 3.5-5 2-1.7 4.6-2.3 7-2.7 2-.3 1.2-3.2-.7-2.9-3 .3-5.7 1.4-8 3.2a19.8 19.8 0 0 0-4.4 5.9c-1 1.7 1.7 3.2 2.6 1.5Z" fill="#232983"/><path d="M519.6 166.1c-2.3-4.1-4.4-8.4-7-12.4-1-1.6-3.6 0-2.6 1.5 2.6 4 4.7 8.3 7 12.4 1 1.7 3.6.2 2.6-1.5Z" fill="#308DEB"/><path d="M485.7 202.1c-5.5-13.9 10.6-16.1 18.7-21.8 4-2.8 7.2-6.7 11.2-9.5 7.3-5 17.7-3.3 18.6 6.9.1 2 3.1 2 3 0-.6-6.4-4.8-12-11.4-12.8-7.4-1-13.2 4.3-18.2 8.9-3.3 3-7 5.5-11 7.3-3.1 1.4-6.3 2.6-9 4.7a14.3 14.3 0 0 0-4.7 17.1c.7 1.8 3.6 1 2.9-.8Z" fill="#232983"/><path d="M497 196c-9.3 5-19.6 8.7-28.1 15a56.5 56.5 0 0 0-17.2 22.6c-9.4 20.3-8.4 43.1-9.7 65-.1 2 2.9 2 3 0 1.3-21.2.2-43.8 9.3-63.5a53.5 53.5 0 0 1 18.1-23c8.1-5.4 17.5-9 26.1-13.5 1.7-1 .2-3.5-1.5-2.6Z" fill="#232983"/><path d="M403.1 289c-.8-6.6 10.5-34.4 20-23.3 2.4 2.9 3.7 5.1 7.4 6.4 5 1.8 9.3 3.1 13 7.3 1.3 1.5 3.4-.7 2.1-2.1-4.2-4.7-8.8-5.8-14.4-8-5.8-2.4-6.4-9.8-13.9-9-5 .4-8.2 4.5-10.4 8.7-3 6-7.7 13-6.8 20 .3 1.9 3.3 1.9 3 0ZM378.4 261c-4-2.4-3.6-6.8-5.4-10.4-1.7-3.4-6.4-8.4-4.5-12.3.9-1.7-1.7-3.2-2.6-1.5-2.2 4.7 1 9.2 3.3 13.3 2.8 4.8 2.5 10.4 7.6 13.5a1.5 1.5 0 0 0 1.6-2.6ZM386.6 258.3l2.2 3.5c1 1.6 3.7 0 2.6-1.6l-2.2-3.4c-1-1.7-3.7-.2-2.6 1.5Z" fill="#232983"/><path d="M360.1 234.8c1.8-.8 4.9.7 5.6 2.5.8 1.8 3.7 1 3-.8-1.6-3.8-6.3-6-10-4.3-1.8.8-.3 3.4 1.4 2.6ZM391.7 259.6l-2-6.4c-.6-1.8-2.2-5-2-6.9 1.7-3.5 3.3-4.2 4.7-2a6 6 0 0 1 1.9 2.3c1 2 2 4.2 2.6 6.3.9 2.3 1.6 5 3.2 6.8 2.8 3 7.4 3.7 8.5 8.3.4 1.9 3.3 1 2.8-.8-1.4-6-8.3-7-10.5-12.2-2-4.5-3-10.4-7-13.7-3-2.4-7.2-2-8.7 1.9-2 5 2 12.5 3.6 17.1.6 1.9 3.4 1 2.8-.8Z" fill="#232983"/><path d="M489.4 320.3a69.5 69.5 0 0 0 10-30.6c.3-2-2.8-2-3 0a66.2 66.2 0 0 1-9.6 29c-1 1.7 1.6 3.2 2.6 1.6Z" fill="#308DEB"/><path d="M557.4 247a247 247 0 0 1-2.4 46.7c-.3 1.9 2.6 2.7 2.9.8a251 251 0 0 0 2.5-47.6c-.1-1.9-3.1-1.9-3 0Z" fill="#20267F"/><path d="M509.7 359.6c16-5.3 41.2-8 44.7-28.5.4-1.9-2.5-2.7-2.9-.8-3.3 19-27.6 21.5-42.6 26.4-1.8.6-1 3.5.8 3Z" fill="#232983"/><path d="M541.6 347.6c1.6 7 2.4 14.3 2.4 21.5a1.5 1.5 0 1 0 3 0c0-7.5-.9-15-2.5-22.3-.5-1.9-3.3-1-3 .8h.1Z" fill="#232983"/><path d="M1058.2 513.8c1.3 21.7 2.8 39 4.2 60.6 1.1 18.5-2 36.9-6.6 54.9-4.5 18-15.6 35.4-32.6 42.7-7.6 3.3-16 4.4-24.2 5.4-75 9-151 8.8-226-.8a57 57 0 0 1-18.2-4.5c-5.6-2.8-10-7.1-14.5-11.4-48.3-45.6-106.8-82-143.2-137.4a226 226 0 0 1-31.3-73.2c-3.4-15-5.3-31-.1-45.6 7.2-20.3 27.7-31.7 47.5-41.1 19.5-9.2 44.2 3.4 64.6 10.3 58.6 19.8 108.1 60 165 84.5a329.3 329.3 0 0 0 78.7 22.8c43.8 6.9 91.5 5.8 127.8 31.1l8.9 1.7Z" fill="#C0DCEE"/><path d="M660.9 342.3c55.3-16 113.4-30.4 170-20.1 44.2 8 84.4 30.4 121.4 55.6a344 344 0 0 1 66.2 55.7c19 21.7 34 47.8 39 76.2 2.5 13.8 2.4 28.8-4.7 40.8-3.4 5.6-8 11.6-13.4 15.5a58.6 58.6 0 0 1-37.5 11 42.5 42.5 0 0 1-33.7-18.6 71.4 71.4 0 0 1-116 2.1 67.5 67.5 0 0 1-44.7 33.2 126.2 126.2 0 0 1-57-1.3 228.6 228.6 0 0 1-147-107.8 17 17 0 0 1-2.1-5c-.6-3 .3-6 1.4-8.8 4.4-12 10.5-23.5 14.4-35.8a71.5 71.5 0 0 0 .6-37.7 161.2 161.2 0 0 1-4.6-33.8c0-.1 29.4-15.9 47.7-21.2Z" fill="#82B7DE"/><path d="M888 343.6c-7.1-13.1-16.6-33-23.8-46 1.9-2.3 4.2-4.4 6-6.7 2.3-2.8 4.2-5.8 6-9 2.5-4.8 4.8-9.8 5-15.3 0-11.7-2.5-26-12-33.7-10.4-8.6-25.6-7.5-36.3-.1a48.1 48.1 0 0 0-18.8 32.9c-.2-1.1-.6-2.3-1-3.3-1.4-3-3.1-6-5.2-8.6-4.3-5.7-9.7-10.5-15.1-15.1-11.3-9.7-23-19.3-37-24.6a69.2 69.2 0 0 0-45.6.3c-7.7 2.5-15.2 5.5-22.5 9-5.7 2.6-6.7-5-9.7 1a273 273 0 0 0-2 26.2c.2 7.5 0 25 1 32.4 1.1 8.4 8.4 33.2 8.3 35.5-.2 2-6.8 12.7-7.3 14.6-5.2 17.4-11.3 30-13.6 48-.1.8 23.1-3 41.8-4.2a46 46 0 0 0 36 34.6A74.3 74.3 0 0 0 781 404c8 11.4 18.3 23.1 32.5 26a55.4 55.4 0 0 0 39.4-8.5c12.3-7.7 26.3-21.2 31-35 8.3-25 4.5-42.3 4.1-42.8Z" fill="#C88467"/><path d="M670.4 228.7c0 30.5 2.3 60.1 10.5 89.7 1.2 4.2 7.9 2.4 6.7-1.9-8-29-10.3-58-10.3-87.8 0-4.5-7-4.5-7 0Z" fill="#308DEB"/><path d="M669.8 154c-3-5-6.1-10-7.1-15.8a26.6 26.6 0 0 1 8.7-23.5 36.9 36.9 0 0 1 24-9 59 59 0 0 1 25.2 5.7l.2 1.3a29.9 29.9 0 0 1 21-43.3c4-.6 8-.7 12-.2 10.1 1.1 20.8 5.3 26 14l1.2.8a24 24 0 0 1 22-10 38 38 0 0 1 22.4 10.7c6.2 5.8 11 13 15.4 20.1 12 19.5 22.2 40.3 28.2 62.4 5.9 22.1 7.4 45.7 2 68l.2.5a33.6 33.6 0 0 0-41.3.6c-10.8 9.1-14.5 24-16.5 38l-1-.4c-5.6-.5-10.4-4.8-13-10-2.5-5-3-10.9-3.5-16.6-7.5.2-15-.3-22.4-1.7a36 36 0 0 1-10.7-3.3c-9.3-5-13.6-16.1-15.5-26.5v1.1c-18.7 15.4-44.2 27.8-68.2 25.3-9.8-1-22-5.2-30.3-13.6-7-7-13.7-16.1-15.3-25.8-1.8-11.4 3.9-22.8 11.6-31.3 6.4-7.2 14.3-13 23-17l1.7-.6Z" fill="#20267F"/><path d="M862.4 623c-5.3-22-22-35.3-36.7-47.8-4.2-3.6-8.6-7.1-12.2-11.4-6-7.1-9.4-16-15.3-23.2-9.5-11.6-24.5-17.3-39.1-20.6a8.2 8.2 0 0 0-3.7-.3c-4.3 1-4.3 7.3-2 11.1 4.5 7.7 13.2 11.8 20.5 17 14 9.8 23.9 24.7 37.6 35 16.3 12 50.9 40.2 50.9 40.2Z" fill="#C88467"/><path d="M863.8 622.6c-5.9-23.2-24.2-37.4-41.5-52.3a63 63 0 0 1-13-15.3c-3.3-5.2-6-10.7-10-15.4a62.1 62.1 0 0 0-29.3-18.2c-6.4-2-19.6-7.3-19.7 3.9 0 10.1 11.8 16.5 19 21.2 11 7.1 19.5 17 28.7 26.2 7.5 7.6 16 13.8 24.5 20.4 13 10.2 25.9 20.5 38.7 31 1.5 1.2 3.6-1 2.1-2.1a3444.8 3444.8 0 0 0-47.2-37.6 209.2 209.2 0 0 1-24-22.2 133.9 133.9 0 0 0-24.5-20.3c-4.4-3-9.2-6-12.3-10.6-1.2-1.8-3-5.4-1.8-7.7 2.1-4.2 9.5-1.1 12.7-.2a62.5 62.5 0 0 1 29.9 17.1c7.6 8.6 11.4 19.9 19.7 28 8.3 8.1 17.6 14.7 25.7 22.8 9.1 9.1 16.2 19.6 19.3 32 .6 2 3.5 1.2 3-.7ZM445 534.7c2.8 13.7 7 27.1 12.7 40a54 54 0 0 0 7.2 12.6c3 3.8 7.2 6.9 12 8 3.7.8 7.7.3 11.1-1.5 3.4-2 6-5 7-8.8 1.3-4.3.4-9-.7-13.3-1.4-5.6-3.3-11.2-5.5-16.6-2.2-5.5-5.2-11.2-10.3-14.1-2.3-1.2-4.8-2-7.3-2.5-6-1.1-12.3-1.3-18.3-.5" fill="#C88467"/><path d="M443.6 535.1c3.4 16.5 8.3 34.5 17.2 49 6.4 10.4 20.5 18.5 31.2 8.6s2.4-28.7-2.4-39.7c-2.6-5.9-6-11.5-12-14.1a48.4 48.4 0 0 0-24.7-2.4c-1.9.3-1.9 3.3 0 3 7-.8 14.2-.8 21 1.2 6.3 1.9 9.8 6.7 12.5 12.4a110 110 0 0 1 6.5 19c1.8 7.2 2.3 15.7-5 20-14.5 8.6-24.8-8.6-29.5-19.7-5.2-12.3-9.2-25-11.8-38-.4-2-3.3-1.1-3 .8Z" fill="#C88467"/><path d="m459 586.2 1.3 21.2c.5 9.3 1.1 18.8 4.8 27.3 3.8 8.5 11.4 16 20.6 16.8a31.2 31.2 0 0 0 18.8-5c3.1-3 3.8-7.9 4-12.3a71 71 0 0 0-1.7-16.9c-1.2-5.4-3.2-10.9-7.3-14.6-7.8-7-22.4-1.7-31-8-3.2-2.3-6.2-7.2-8.7-8.2" fill="#C0DCEE"/><path d="M457.5 586.2c1 15.1 0 32 5.3 46.5 4 10.8 13.2 20.7 25.5 20.4 5.4-.1 12.3-1.5 16.6-5 4.6-4 5-10.2 5-15.8 0-11-1.8-28-13.3-33.2-5.5-2.5-11.9-2-17.8-2.6a18 18 0 0 1-11.3-4.7c-2.3-2.2-4-5-7-6.6-1.6-1-3.1 1.6-1.4 2.5 4.8 2.7 7 8.2 12.4 10.3 5.1 2 10.8 1.6 16.2 2.1 8.6.9 13.7 4.9 16.4 13.2a54.6 54.6 0 0 1 2.5 25.2c-1 5.7-4.2 8.4-9.6 10-4 1.4-8.3 1.9-12.4 1.3-7.7-1.3-13.7-7.2-17.1-13.8-3.9-7.5-4.8-16-5.4-24.2l-1.6-25.6c0-1.9-3-2-3 0Z" fill="#C0DCEE"/><path d="M490.9 647.3c-16-99-25.7-206.3-37.5-305.8 100.3 22.5 295 103.9 295 103.9s1 19.4 1 22c6.4 74.1 4.2 142.6 15.8 212-26.4-1.5-266.4 0-266.4 0l-8-32.1Z" fill="#F0F1F9"/><path d="M862.5 622.5a26.3 26.3 0 0 1-12.3 18.8c-6.5 4.2-14.2 6-22 6.7-24.6 2-68.4-29.4-69.9-30-1.3-.5-36.6 1-53.7-1.3-4.5-.7-11.5-1.9-14.6-5.2-3.1-3.4-3.2-6.8.8-9.1-5.9-1.1-12-2.6-16.3-7-4.1-4.2-5.1-12-.4-15.8a13.7 13.7 0 0 1-3.4-26.6c-6.1-1.6-7.5-10.6-3.7-15.7s10.4-5.2 16.7-5.2c13.6 0 22 0 32.4 1 10.5 1.1 20.2 0 30.6 1.2 7.9.9 15.9 1.8 23.2 4.8 13 5.3 22.3 16.4 32.9 25.7 13.5 11.9 29.4 20.9 43 32.6 7.8 6.8 15.3 15.2 16.8 25.5v-.4Z" fill="#C88467"/><path d="M861 622.5c-2.5 19-25.8 26.4-42.2 23.4a122.5 122.5 0 0 1-37-15.2c-5-2.7-9.7-5.7-14.4-8.7-2.5-1.5-5-3.7-7.8-5-1.7-.7-3.3-.5-5.2-.5l-17 .1c-7.7 0-15.3 0-23-.5-3.5-.2-7-.5-10.6-1a47.2 47.2 0 0 1-10-2.7c-2.5-1.4-7.3-5-2.3-8.7 1-.7 1-2.5-.3-2.7-5-1-10.6-2-14.5-5.5-4.2-3.7-6-10.5-1.6-14.8a1.5 1.5 0 0 0-1-2.5c-13-1.4-15.3-19.2-3-23.8a1.5 1.5 0 0 0 0-2.9c-3.7-1.2-5.1-5.2-4.7-8.8.6-4.6 4-7.5 8.4-8.4 7.3-1.7 15.8-.7 23.3-.6 6.7 0 13.3.6 20 1.2 8.5.7 17 0 25.6.7 9 .6 18.6 1.7 26.9 5.4a73 73 0 0 1 19.1 13.8c11.1 10.3 22.9 20 35.2 28.7 14 10 33 21.5 36.2 39.9l3-.8-.2-.5c-.5-1.8-3.4-1-2.9.8l.1.5c.5 1.9 3.3 1 3-.8-3.1-17.2-19.3-28.5-32.6-38-8.6-6.3-17.5-12.2-25.7-19.1-6.9-5.8-13-12.5-20-18.2-14.9-12.2-32.8-15-51.6-15-18.3-.1-36.5-2.6-54.9-1.6-6.8.4-14 2.8-15.6 10.3-1.3 5.5 1 11.5 6.6 13.4v-2.9a15.3 15.3 0 0 0 3.8 29.6l-1.1-2.5c-4.4 4-4.4 10.7-1.3 15.6 4 6.3 11.9 8.3 18.7 9.6l-.4-2.7c-6.5 4.7-3 11.5 3.4 14.4 6.3 2.8 14 3.2 21 3.6 14.1.8 28.4-.5 42.5.3 1.5.1.3-.2 1.6.5l4.4 2.9a327 327 0 0 0 15.8 9.6c12.8 7.3 27 14.8 41.7 16.8 18 2.5 41-6.8 43.6-26.7.3-2-2.7-1.9-3 0Z" fill="#C88467"/><path d="M860.5 300c6.8 14.5 14 28.8 21.7 42.8 2.2 4 8.1.4 6-3.5-7.7-14-14.9-28.2-21.7-42.7-1.8-4-7.8-.6-6 3.4Z" fill="#308DEB"/><path d="M446.1 478c-2.4-3.6-2-8.5-.1-12.3a27 27 0 0 1 8.7-9.3c6.2-4.4 13-8 18.7-13.1 4.7-4.3 7.8-6.4 14-8.3 4.7-1.5 9.6-2.3 14.6-2.1 5.3 0 10.6-.6 15.7-2.1 4.7-1.3 10.3-4.5 14.6-2.3 4.8 2.4 6 9.2 3.8 14.1-2.3 4.9-7.2 8-12.2 10-6.5 2.5-7.3 4.3-18.8 4.3-2 0-6.2-2-8-1.1-1.6.7-1.4 1.8-2.4 3.2-3.4 4.6-8.1 9.6-11.5 14.3 7.7-2 15.9-2.1 23.7-.3 3 .5 5.9 1.8 8.4 3.5a14 14 0 0 1 0 22.3c5 1.3 9.4 8.3 9.7 13.5.3 5.2-3.4 8.2-8.3 10 2.8 1.7 4 5.3 3.8 8.5-.3 3.2-2.2 12-3.9 14.9-4 7-24.7 21-41.7 15.7A62.3 62.3 0 0 1 450 545c-6-6.7-7.8-17.7-2-24.5a15.7 15.7 0 0 1-4.3-20c.5-.6.7-1.2.8-1.9a4 4 0 0 0-1.3-2.3c-4.4-5.3-3-14.4 2.9-18.1" fill="#C88467"/><path d="M447.4 477.2c-5.9-10.4 6.5-18.6 14-23.4 3.4-2.2 6.8-4.4 10-7 3.3-2.5 5.9-5.2 9.2-7.3a44 44 0 0 1 23.1-5.1c4.3 0 8.5-.7 12.7-1.7 3.5-1 7-2.8 10.6-3.3 6.4-.8 9.7 4.8 8.4 10.4-1 4.9-5.4 8.2-9.6 10.3a44 44 0 0 1-14.4 5c-2.1.3-4.2.4-6.3.3-1.9-.3-3.7-1.1-5.6-1.3-1.7-.2-3.2 0-4.4 1.2a52.3 52.3 0 0 1-5.6 7.8c-2.6 3-5.2 6.1-7.6 9.4-.9 1 .5 2.5 1.7 2.2a45 45 0 0 1 27 1 12.7 12.7 0 0 1 3.6 22 1.5 1.5 0 0 0-.4 1.4 1.5 1.5 0 0 0 1 1c4.3 1.5 7.2 5.8 8.3 10 1.4 5.5-2 8.8-6.8 10.8a1.5 1.5 0 0 0-.4 2.8c6.4 4.7 1.6 19.6-3 24.3a46.9 46.9 0 0 1-23.2 12.3c-11 2.3-20.7-2-29.6-8.3-9-6.5-20-19-11-30.3a1.5 1.5 0 0 0 0-2.1 14.5 14.5 0 0 1-5.8-11.5c0-2.3.6-4.7 1.7-6.8a6 6 0 0 0 1-2.4c0-2.7-2.8-4.6-3.5-7.1a11.4 11.4 0 0 1 4.3-12.2c1.6-1.1 0-3.7-1.5-2.6a14.2 14.2 0 0 0-6 10c-.6 4.5 1.3 6.6 2.8 10.4 1 2.5-.6 4-1.3 6.5a17.5 17.5 0 0 0 6.2 17.9v-2.2c-8.1 10.4-2.6 23 6.3 30.8 9.8 8.7 22.3 15.4 35.8 13a46 46 0 0 0 28-15.8c2.8-3.8 3.6-9 4.4-13.6.9-5 .4-9.7-4-12.9l-.4 2.7c5.6-2.3 10.2-6.1 9.3-12.7-.9-6-5-11.8-10.7-13.8l.7 2.6c7.3-6.2 8-17.5.6-24-8.7-7.4-23.9-6.5-34.2-4l1.7 2.2c2.6-3.5 5.5-6.8 8.3-10.1 1-1.2 2-2.3 2.8-3.6 1.7-2.5 2.3-3.2 5.7-2.7 5.3.7 10.6 1.1 16-.6 9.2-3.1 22.3-8.9 21.4-20.6-.3-4.6-3.2-9-8-10-6.5-1.2-13.9 3.4-20.3 4.4-8.4 1.4-16.5.3-24.8 3.2-6.3 2.2-10.6 6.3-15.7 10.3-9.7 7.7-34.3 18-25 34.4a1.5 1.5 0 0 0 2.6-1.5l-.1-.1Z" fill="#C88467"/><path d="M711.1 307c4.8-7.1 18.3-9.1 26-9.3 8.8-.4 17.5 2.7 24 8.6 3.3 3 8.2-1.9 4.9-4.9a41 41 0 0 0-30.7-10.5c-10.2.6-24.2 3.5-30.2 12.6-2.5 3.6 3.5 7.1 6 3.4Z" fill="#232983"/><path d="M724.6 297.2c-3 1.7-3.4 5.7-3.2 9 .6 8.3 3.6 16 8.7 22.5 1.2 1.8 3 3.3 5 4.1.7.3 1.5.3 2.3.2 1.5-.4 2.4-1.8 3-3.2 1.6-3.8 2-8 1.2-12-.9-4-2.2-7.9-4-11.5a18.4 18.4 0 0 0-5.2-7.4c-2.5-1.8-6.2-2.3-8.5-.3" fill="#20267F"/><path d="M723 294.6c-7.5 5.7-4.5 17.5-1.5 25.1 2.4 5.9 9.4 19.9 18 15.6 9-4.4 5.2-20 2.3-27-3-7.3-9.8-18.6-19.3-12.3-3.2 2.1-.2 7.4 3 5.2 6-4 10.2 7.5 11.6 11.5 1 2.8 4.4 18-1.7 17-3.8-.6-7.6-10-8.7-13-1.4-4-4.8-13.7-.6-16.9 3-2.3 0-7.5-3-5.2Z" fill="#20267F"/><path d="M704.6 290.3c8.2-6 18.3-9 28.4-8.3 4.4.3 4.4-6.6 0-6.9a48.6 48.6 0 0 0-31.9 9.2c-3.5 2.5 0 8.5 3.5 6ZM681 316.5c-8.2 20-14.6 40.6-21.9 60.9-1.5 4.2 5.2 6 6.6 1.8 7.3-20.3 13.8-40.9 21.9-60.8 1.6-4.2-5-6-6.7-1.9Z" fill="#232983"/><path d="M662.7 382.4c19.4-1 38.8-2.7 58.1-4.8 4.4-.5 4.5-7.4 0-7a991.6 991.6 0 0 1-58.1 4.9c-4.4.2-4.5 7.1 0 6.9Z" fill="#232983"/><path d="M704.3 380.1c3.8 9 8.5 18 16.2 24.4 7 5.8 15.6 9.5 24.7 10.7 19.6 2.7 38.3-5.9 53.2-18.1 3.4-2.9-1.5-7.7-4.9-5-13.3 11-30.5 18.9-48 16.2a41.1 41.1 0 0 1-21.9-10.2 60.7 60.7 0 0 1-13.3-21.5c-1.8-4-7.7-.5-6 3.5Z" fill="#232983"/><path d="M713 394.3a42.7 42.7 0 0 0 35.6-9.7c3.4-2.9-1.5-7.7-4.9-4.9a35.3 35.3 0 0 1-29 8c-4.3-.9-6.2 5.8-1.8 6.6ZM840.8 249.7l-5 27a3.5 3.5 0 0 0 4.3 4.2c8.4-1.5 16.6-3.5 24.7-6 4.2-1.4 2.4-8-1.8-6.7-8.1 2.6-16.4 4.6-24.7 6l4.2 4.2 5-26.9c.7-4.3-6-6.2-6.7-1.8Z" fill="#232983"/><path d="M867 233.3a37.7 37.7 0 0 1 11 40 45 45 0 0 1-33 28.6 3.5 3.5 0 0 0-2.5 3.3c0 9.1-2.4 18-6.7 26.1-2.1 4 3.9 7.4 6 3.5 5-9.1 7.5-19.3 7.6-29.6l-2.5 3.3a52 52 0 0 0 37.8-33.4c5.3-16.4.3-35.5-12.8-46.8-3.4-2.8-8.3 2-4.9 5ZM779 405.7a44.1 44.1 0 0 0 39 30c4.4.2 4.4-6.7 0-7a37 37 0 0 1-32.3-24.9c-1.4-4.2-8-2.4-6.6 1.9h-.1ZM839.8 432.5c26.7-10.6 46.1-37.7 52.5-65 1-4.4-5.6-6.2-6.6-1.9a90.4 90.4 0 0 1-16.8 35.3 78.8 78.8 0 0 1-31 25c-4 1.6-2.3 8.3 1.9 6.6Z" fill="#232983"/><path d="M759.4 414.3a72 72 0 0 0 71 42.3c31-2.5 52.7-25.5 67.4-51.1a93.6 93.6 0 0 0 12.4-52.5c-.3-4.4-7.2-4.4-7 0a90 90 0 0 1-13.8 53.2 96.6 96.6 0 0 1-35.8 36.8c-32.9 17.3-73.3.9-88.2-32.1-1.8-4-7.8-.5-6 3.5Z" fill="#232983"/><path d="m884.4 344.5 19.8 10.2c4 2 7.5-4 3.5-6l-19.8-10.2c-4-2-7.4 3.9-3.5 6ZM447.7 475c-5.3-7 1.8-14 7.8-17.5 6-3.6 12.3-6.4 17.9-11 6.5-5.2 11.8-9.4 20.5-10.1 8.1-.6 15.2-.5 23-3.5 3.3-1.3 7.4-3.1 11-2.3 4.7 1.1 6 5.6 4.2 9.8-3 6.6-11.3 10.5-18 11.8-4 .8-8 .8-11.9.1-2.5-.4-4.7-.5-6.8 1.3-2.1 1.8-3.7 4.7-5.8 6.8a34.4 34.4 0 0 1-8.7 6.6c-4 2-.4 8 3.5 6 2.6-1.4 5-3.1 7.3-5 2.7-2.4 4.6-5.6 7.2-7.8 2.4-2 6.6-.4 9.7-.4 3.5-.1 7-.7 10.5-1.7 10.7-3.3 25.7-14.4 19.5-27.4-2.6-5.3-8.3-7.4-13.9-7-3.7.3-7 1.7-10.5 3a40.9 40.9 0 0 1-13 2.6c-7.7.3-15.1.3-22 4.3-6.2 3.6-11 9.1-17.2 12.7-6.9 4-14.6 6.7-19.5 13.3-4 5.6-5 13.3-.8 19 2.7 3.5 8.7 0 6-3.5Z" fill="#232983"/><path d="M503.7 434.8a19 19 0 0 0 15 7.8c6.3.2 12.2-4.5 15.1-9.8 2.1-4-3.8-7.4-6-3.5-1.7 3.2-5.3 6.6-9.1 6.4-3.3 0-7.3-1.7-9.1-4.4-2.5-3.7-8.5-.3-6 3.4h.1Z" fill="#232983"/><path d="M456.7 587.6a26 26 0 0 0 23.2 14.4c4.4.1 4.4-6.8 0-7-7.5-.3-14-4-17.2-10.9-1.9-4-7.8-.5-6 3.5Z" fill="#308DEB"/><path d="M464.2 447.7c-2-35.1-9-69.7-9.8-104.9-.1-4.4-7-4.4-7 0 1 35.2 7.8 69.8 10 104.9.2 4.4 7 4.4 6.8 0Z" fill="#232983"/><path d="M450.4 345.8c35.6 8.9 70.4 21 105.9 30.4 11.9 3.2 23.5 8 35 12.3C630.8 403.3 670 419 709 434.8c12.3 5 25 9.5 36.8 15.5 4 2 7.5-3.9 3.5-6-10-5.1-20.8-9-31.2-13.3a4245.2 4245.2 0 0 0-117.8-46.4c-13.2-5-26.4-10.3-39.9-14.4-15.5-4.6-31.2-8.4-46.6-13.2-20.5-6.2-40.9-12.7-61.7-17.8-4.3-1.1-6.1 5.5-1.8 6.6ZM446.7 479.4a33 33 0 0 1 18.2-5l17.8-1c4.4-.2 4.4-7.1 0-7-12.8.7-28.6-.7-39.5 7-3.6 2.6-.1 8.6 3.5 6ZM445.9 502.8c9.4-7.7 22.5-7 33.8-5 12.3 2 23.9 3.7 36.4 3.5 4.4 0 4.4-7 0-7-7.6.4-15.1 0-22.6-1.1-6.8-1.1-13.4-2.6-20.2-3.3a43 43 0 0 0-32.3 8c-3.5 2.8 1.4 7.7 4.9 5v-.1ZM448.2 524.7a38.8 38.8 0 0 1 32.8-4.6 68 68 0 0 0 15.7 2.8c6.4.2 12.6-.4 18.8 1.3 4.3 1.2 6.1-5.5 1.9-6.7-6.3-1.7-12.5-1.4-18.9-1.5-7.3-.1-13.7-2.4-20.8-3.8a44.2 44.2 0 0 0-33 6.6c-3.7 2.4-.2 8.4 3.5 6ZM501.9 537.2a58.2 58.2 0 0 1-27 3.5 3.5 3.5 0 0 0-3.3 4.4c1.5 4 2.2 8.3 2 12.6-.2 4.4 6.7 4.4 6.9 0 .2-5-.6-9.8-2.3-14.4l-3.3 4.3c9.8 1 19.7-.2 28.8-3.7 4.2-1.6 2.4-8.3-1.8-6.7Z" fill="#232983"/><path d="M482.5 562.4c2-2.2 5.2-3.1 8-4 1.5-.4 7.3-1.9 8.5-.4 2.8 3.5 7.7-1.4 4.9-4.8-3-3.6-8.5-2.8-12.5-2-4.8.8-10.4 2.8-13.8 6.4-3 3.2 1.8 8.1 5 4.9Z" fill="#232983"/><path d="M473.9 559c6 30.6 8 62 15.9 92.3 1 4.3 7.8 2.5 6.6-1.8-7.8-30.2-9.8-61.7-15.9-92.3-.8-4.4-7.5-2.5-6.6 1.8ZM814.1 572c-16.6-14-29.1-34.3-51.1-40.5-15.5-4.5-32.5-1-48.4-3.3-14-2-30-6.6-43.8-1-10.7 4.3-18.5 19.5-7.6 28.2 3.5 2.8 8.4-2 5-4.8-6.5-5.1-2-13.6 4-16.6 7.2-3.5 16.2-2.7 23.9-1.8 8.7 1.1 17.2 3.1 26 3.8 9 .7 18.1 0 27.2.5 14.8.7 25.9 7.3 36.6 17.2 8 7.4 15 16.1 23.4 23.1 3.4 2.9 8.3-2 4.9-4.8Z" fill="#232983"/><path d="M662.5 552a17 17 0 0 0 7.7 29.5l-2-5c-4.2 5.5-3.5 13.2.5 18.6 4.5 6 12 8.1 19.2 8.7l-3.3-4.4c-4.5 14.2 8.4 24.6 21.1 26.4 8.5 1.2 17.2-.2 25.6-1l28-2.4c4.4-.4 4.5-7.3 0-7-13.7 1.3-27.4 2.8-41.2 3.8-10.5.7-32-2-26.8-18 .7-2.2-1.2-4.1-3.4-4.3-8-.6-21-7.4-13.8-17 1.4-1.7 0-4.6-2-5-9-1.8-11.7-12-4.7-18 3.4-3-1.5-7.8-4.9-4.9Z" fill="#232983"/><path d="M690.2 604c1-2 5.7-1.6 7.5-1.8l8.7-.8 18.3-1.5c12-.9 23.9-1.4 35.8-1.3 4.5 0 4.5-6.8 0-6.9-14.5 0-29 .7-43.5 2l-21.2 1.8c-4.4.5-9.3.6-11.6 5-2 4 4 7.5 6 3.5ZM671.9 581.1c12.7-5.6 27.8-4.4 41.4-4.7l21.7-.5c6.7-.2 13.2-.5 19.6 2 4.1 1.7 6-5 1.8-6.6A50.6 50.6 0 0 0 736 569l-24.6.7c-14.5.3-29.5-.4-43 5.6-4 1.8-.5 7.7 3.6 6ZM665.8 558.2c7.8-2 15.6-4 23.7-4.9 7-.6 14.1-.7 21.2-.3l46.4 1.8c4.4.2 4.4-6.8 0-7l-48.3-1.8c-15.5-.5-29.8 1.7-44.8 5.6-4.3 1-2.5 7.7 1.8 6.6ZM662.4 540.8c6.1 4.4 14 6.2 21.1 3.3 6-2.5 9.9-7.6 8.9-14.1-.7-4.4-7.4-2.5-6.7 1.8.8 4.6-6 6.8-9.5 6.9-3.9 0-7.3-1.6-10.4-3.9-3.6-2.6-7 3.4-3.4 6Z" fill="#232983"/><path d="M659.7 569a22.2 22.2 0 0 0 18.7-2.2c4.2-2.9 8.6-8.8 7.3-14a3.5 3.5 0 0 0-3.4-2.6h-.3a3.6 3.6 0 0 0-3.3 2.5v.3c-1.7 4.1 5 5.9 6.6 1.8v-.3l-3.3 2.6h.3l-3.3-2.6c.7 2.8-4 6.4-6 7.4a16 16 0 0 1-11.5.4c-4.3-1.3-6 5.4-1.8 6.6ZM671.2 593.8a18 18 0 0 0 24-18.4c-.3-4.4-7.2-4.4-6.9 0 .7 8.7-7 14.4-15.3 11.7-4.2-1.4-6 5.2-1.8 6.6ZM688.9 613.9c5.9 1.9 12.8 2.8 18.3-.7a13.3 13.3 0 0 0 6.3-13.6c-.7-4.4-7.3-2.5-6.7 1.8.5 3.4-2.7 6.2-5.6 7-3.5.8-7.2 0-10.5-1.1-4.2-1.4-6 5.3-1.8 6.6ZM820 650.5c9 5.1 23.2 2.2 31.7-2.6a27.9 27.9 0 0 0 14.6-26.5c-.4-4.4-7.3-4.4-6.9 0 .9 8.6-3.7 16.4-11.2 20.6-6.3 3.5-18 6.4-24.6 2.5-3.9-2.2-7.4 3.8-3.5 6Z" fill="#232983"/><path d="M836 587.4a108 108 0 0 1 15 19.6c3.3 5.4 6.5 11.2 11.2 15.5a48 48 0 0 0 18.2 9.3c7.8 2.6 15.7 5.2 23.3 8.5 7.3 3.3 13.7 7.8 20.5 11.9a71.4 71.4 0 0 0 20.3 7.7c14 3.3 29.6 5.1 39.2 17.1 2.7 3.5 7.6-1.4 4.8-4.9-8.6-10.9-22.3-14.5-35.3-17.3-7.6-1.7-15.4-3.3-22.4-6.9-7-3.6-13.3-8.6-20.4-12-7-3.3-14.1-6.1-21.4-8.5-7.5-2.5-15.9-4.3-21.9-9.7-5-4.7-8.1-11-11.7-16.8-4.2-6.6-9.1-12.7-14.6-18.3-3.1-3.2-8 1.7-4.9 4.8Z" fill="#308DEB"/></svg>